Coordinates
version=1
nRows=14
nColumns=40
inDegrees=yes

Units are S.I. units (second, meters, Newtons, ...)
Angles are in degrees.

endheader
time	pelvis_tilt	pelvis_list	pelvis_rotation	pelvis_tx	pelvis_ty	pelvis_tz	hip_flexion_r	hip_adduction_r	hip_rotation_r	knee_angle_r	knee_angle_r_beta	ankle_angle_r	subtalar_angle_r	mtp_angle_r	hip_flexion_l	hip_adduction_l	hip_rotation_l	knee_angle_l	knee_angle_l_beta	ankle_angle_l	subtalar_angle_l	mtp_angle_l	lumbar_extension	lumbar_bending	lumbar_rotation	arm_flex_r	arm_add_r	arm_rot_r	elbow_flex_r	pro_sup_r	wrist_flex_r	wrist_dev_r	arm_flex_l	arm_add_l	arm_rot_l	elbow_flex_l	pro_sup_l	wrist_flex_l	wrist_dev_l
     57.32000000	     -4.18577174	     -3.44866907	      3.62436167	      1.13392960	      0.92372804	      0.46138191	      1.09548923	     -0.79160230	    -13.62741026	     26.36218464	     26.36218464	     17.76139003	      1.82349094	     -7.33941032	     25.10901425	     -5.24042001	     -2.89117837	     26.04176143	     26.04176143	      7.96928724	    -16.48479726	      6.29733081	     -9.13265485	      4.86467531	      2.12558572	     10.55843030	    -20.98428554	     -0.15601010	     50.44556327	     46.03856749	      0.00000000	      0.00000000	     -0.94979505	    -11.91008671	    -13.74327052	     45.35221893	     46.16648179	      0.00000000	      0.00000000
     57.33257143	     -4.09729863	     -3.42759170	      3.42636155	      1.13505585	      0.92493272	      0.45931937	      1.74101605	     -1.37370170	    -13.55094282	     28.17157721	     28.17157721	     14.91473452	      0.79231635	    -14.23970767	     24.39602765	     -5.14014733	     -3.04469010	     25.82785540	     25.82785540	      8.58156068	    -16.40946308	      7.21602435	     -9.12522507	      4.79020505	      2.49855209	      8.97598731	    -20.49708672	     -2.69580841	     49.90481482	     46.11088821	      0.00000000	      0.00000000	     -0.64388343	    -12.07448485	    -12.25370807	     45.75061130	     46.06567818	      0.00000000	      0.00000000
     57.34514286	     -3.99046670	     -3.42728443	      3.18411174	      1.13603526	      0.92607831	      0.45730961	      2.82567728	     -2.03003092	    -13.26073878	     30.99820329	     30.99820329	     13.99069228	      0.49776891	    -15.03755615	     23.62481612	     -5.11352337	     -3.37417971	     25.51678236	     25.51678236	      8.80046132	    -16.25708066	      7.14419011	     -9.17533808	      4.76323746	      2.35244836	      7.96011908	    -20.41293163	     -2.65097632	     49.40228617	     46.11597050	      0.00000000	      0.00000000	     -0.53355213	    -12.03426894	    -12.19029715	     45.93778842	     46.06631323	      0.00000000	      0.00000000
     57.35771429	     -3.98718322	     -3.42403947	      2.91907940	      1.13685366	      0.92688754	      0.45535419	      4.11656545	     -2.71307084	    -12.87560715	     33.77897977	     33.77897977	     11.75639439	     -0.36348026	    -19.01586530	     22.99609224	     -5.05000413	     -3.60540789	     25.24012287	     25.24012287	      8.92854666	    -16.34521143	      6.91362205	     -9.12379920	      4.70438746	      2.53667445	      6.77655275	    -20.31850963	     -3.04293972	     48.33089139	     46.13564083	      0.00000000	      0.00000000	     -0.50675445	    -12.11250253	    -11.35265191	     46.90477379	     46.02136151	      0.00000000	      0.00000000
     57.37028571	     -3.93977091	     -3.42799697	      2.68736840	      1.13752264	      0.92760289	      0.45338785	      5.55934868	     -3.37158550	    -12.32405837	     36.85420527	     36.85420527	      9.54551088	     -1.39680429	    -21.94438675	     22.33420942	     -4.99192240	     -3.82707784	     24.96597471	     24.96597471	      9.11921996	    -16.31491906	      6.72239288	     -9.14544760	      4.69776385	      2.36752808	      5.92868251	    -20.11451053	     -3.40040756	     47.47403876	     46.14387834	      0.00000000	      0.00000000	     -0.59051656	    -12.29401003	    -10.51797169	     47.63329701	     45.98366718	      0.00000000	      0.00000000
     57.38285714	     -3.87935450	     -3.38900218	      2.42072758	      1.13799506	      0.92811200	      0.45149336	      7.25037243	     -4.13105158	    -11.70950288	     40.39358295	     40.39358295	      7.86802738	     -1.70198876	    -22.54031413	     21.74100732	     -4.91167227	     -4.11029251	     24.83814127	     24.83814127	      9.40890441	    -16.28302812	      6.60956241	     -9.24543165	      4.65266667	      2.17010395	      5.07542397	    -20.03164312	     -3.38790005	     46.95546919	     46.15196356	      0.00000000	      0.00000000	     -0.45882707	    -12.29887653	    -10.41361274	     47.91455384	     45.98332160	      0.00000000	      0.00000000
     57.39542857	     -3.90491128	     -3.41941402	      2.18326236	      1.13820184	      0.92827351	      0.44965841	      9.15260156	     -4.72141324	    -10.89188519	     43.93629898	     43.93629898	      5.72852076	     -2.41508117	    -23.39345505	     21.33374082	     -4.87105298	     -4.21959836	     24.81626139	     24.81626139	      9.68218241	    -16.39937284	      6.49111158	     -9.22912397	      4.70870991	      2.18115651	      4.12381960	    -19.98113941	     -3.49521776	     46.04259868	     46.17451945	      0.00000000	      0.00000000	     -0.34892541	    -12.33057156	     -9.99111573	     48.68257621	     45.96407437	      0.00000000	      0.00000000
     57.40800000	     -3.82612784	     -3.38671252	      1.92484725	      1.13828305	      0.92842044	      0.44795553	     11.03914570	     -5.31947593	     -9.98560082	     47.51479997	     47.51479997	      3.49713022	     -3.01024420	    -23.66503911	     20.85763295	     -4.80139820	     -4.43447604	     24.87663443	     24.87663443	     10.01978151	    -16.47655644	      6.35414702	     -9.38774851	      4.69820692	      2.01726335	      3.38725541	    -19.86749963	     -3.58759765	     45.33870549	     46.19381699	      0.00000000	      0.00000000	     -0.22535537	    -12.43157915	     -9.64454479	     49.24985479	     45.94674222	      0.00000000	      0.00000000
     57.42057143	     -3.77359864	     -3.47386447	      1.67024429	      1.13812208	      0.92834595	      0.44649608	     13.02434839	     -5.59187040	     -8.87761291	     50.98983201	     50.98983201	      1.15424380	     -4.03555848	    -23.38636212	     20.53704351	     -4.86982812	     -4.54872251	     25.12376683	     25.12376683	     10.43426148	    -16.61781927	      6.24049052	     -9.54972717	      4.79824785	      2.03497456	      2.78895750	    -19.72364882	     -4.03245397	     43.96552025	     46.24549197	      0.00000000	      0.00000000	     -0.23191884	    -12.70980940	     -8.50787182	     50.59012521	     45.87979964	      0.00000000	      0.00000000
     57.43314286	     -3.69974042	     -3.41416486	      1.40122100	      1.13788532	      0.92828190	      0.44507918	     14.99223668	     -6.04708473	     -7.89862588	     54.33916193	     54.33916193	     -1.08471931	     -4.59340351	    -22.78034503	     20.11820111	     -4.79003902	     -4.76208588	     25.24278916	     25.24278916	     10.80711391	    -16.68743364	      6.10931973	     -9.72822785	      4.74090173	      1.80745771	      2.16918036	    -19.53340801	     -4.13616641	     43.36668127	     46.26351023	      0.00000000	      0.00000000	     -0.06666725	    -12.87230123	     -8.20442173	     51.01684946	     45.86639565	      0.00000000	      0.00000000
     57.44571429	     -3.63614005	     -3.51782932	      1.15416640	      1.13745531	      0.92815811	      0.44401115	     17.01092965	     -6.11984353	     -6.85651212	     57.61567712	     57.61567712	     -2.27759603	     -4.89169777	    -19.04910255	     19.82729190	     -4.90745073	     -4.90332381	     25.52968536	     25.52968536	     11.34224127	    -16.71108125	      6.18144726	     -9.93124557	      4.84862533	      1.74980626	      2.04176560	    -19.08051769	     -5.37609166	     41.18629436	     46.36877254	      0.00000000	      0.00000000	     -0.26884617	    -13.59826290	     -5.91881396	     52.82482496	     45.74366175	      0.00000000	      0.00000000
     57.45828571	     -3.57118072	     -3.65356871	      0.89433274	      1.13691128	      0.92808056	      0.44312292	     18.89554113	     -6.01982162	     -5.85652175	     60.40623805	     60.40623805	     -3.80725043	     -5.93532547	    -16.80616386	     19.53630963	     -5.06773621	     -5.03113775	     25.80735378	     25.80735378	     11.79332334	    -16.79425785	      6.06394243	    -10.13950864	      5.00762514	      1.80090689	      1.42797605	    -18.92221752	     -5.77229138	     40.35309428	     46.39826789	      0.00000000	      0.00000000	      0.11598854	    -13.69837602	     -5.51922836	     53.34532511	     45.74985442	      0.00000000	      0.00000000
     57.47085714	     -3.54168031	     -3.67313487	      0.61058597	      1.13628200	      0.92810527	      0.44239629	     20.68881960	     -6.05593500	     -5.04937365	     62.78310634	     62.78310634	     -5.22800314	     -7.10234642	    -15.43393319	     19.14612692	     -5.10802247	     -5.26035497	     25.81739631	     25.81739631	     12.12200556	    -16.85056067	      5.99113066	    -10.32780968	      5.00811554	      1.66760568	      0.89718849	    -18.68202928	     -5.89163348	     39.83283316	     46.41460429	      0.00000000	      0.00000000	      0.36012596	    -13.82847669	     -5.35606385	     53.67484045	     45.75208382	      0.00000000	      0.00000000
     57.48342857	     -3.47526202	     -3.81330973	      0.35518309	      1.13556649	      0.92829480	      0.44189285	     22.49815195	     -5.87745788	     -4.37306697	     65.16982029	     65.16982029	     -4.32351521	     -7.35986824	     -8.17957297	     18.79488466	     -5.30136556	     -5.45368108	     25.97160101	     25.97160101	     12.55074065	    -16.75506752	      6.02980000	    -10.51982887	      5.18306435	      1.62065080	      1.00828940	    -18.14465921	     -7.59495094	     37.65517126	     46.53514161	      0.00000000	      0.00000000	      0.44977478	    -14.40324493	     -3.69576154	     54.90004693	     45.72544460	      0.00000000	      0.00000000
